<?xml version="1.0" encoding="UTF-8" standalone="no"?>
<svg
   xmlns:dc="http://purl.org/dc/elements/1.1/"
   xmlns:cc="http://creativecommons.org/ns#"
   xmlns:rdf="http://www.w3.org/1999/02/22-rdf-syntax-ns#"
   xmlns:svg="http://www.w3.org/2000/svg"
   xmlns="http://www.w3.org/2000/svg"
   xmlns:xlink="http://www.w3.org/1999/xlink"
   xmlns:sodipodi="http://sodipodi.sourceforge.net/DTD/sodipodi-0.dtd"
   xmlns:inkscape="http://www.inkscape.org/namespaces/inkscape"
   aria-hidden="true"
   role="img"
   class="iconify iconify--logos"
   width="31.88"
   height="32"
   preserveAspectRatio="xMidYMid meet"
   viewBox="0 0 256 257"
   version="1.1"
   id="svg20"
   sodipodi:docname="vite.svg"
   inkscape:version="1.0.2-2 (e86c870879, 2021-01-15)">
  <metadata
     id="metadata24">
    <rdf:RDF>
      <cc:Work
         rdf:about="">
        <dc:format>image/svg+xml</dc:format>
        <dc:type
           rdf:resource="http://purl.org/dc/dcmitype/StillImage" />
      </cc:Work>
    </rdf:RDF>
  </metadata>
  <sodipodi:namedview
     pagecolor="#ffffff"
     bordercolor="#666666"
     borderopacity="1"
     objecttolerance="10"
     gridtolerance="10"
     guidetolerance="10"
     inkscape:pageopacity="0"
     inkscape:pageshadow="2"
     inkscape:window-width="1998"
     inkscape:window-height="1401"
     id="namedview22"
     showgrid="false"
     inkscape:zoom="18.860165"
     inkscape:cx="4.9639136"
     inkscape:cy="19.862421"
     inkscape:window-x="-7"
     inkscape:window-y="0"
     inkscape:window-maximized="0"
     inkscape:current-layer="layer4" />
  <defs
     id="defs14">
    <linearGradient
       inkscape:collect="always"
       id="linearGradient2781">
      <stop
         style="stop-color:#000000;stop-opacity:1;"
         offset="0"
         id="stop2777" />
      <stop
         style="stop-color:#000000;stop-opacity:0;"
         offset="1"
         id="stop2779" />
    </linearGradient>
    <linearGradient
       id="IconifyId1813088fe1fbc01fb466"
       x1="-.828%"
       x2="57.636%"
       y1="7.652%"
       y2="78.411%">
      <stop
         offset="0%"
         stop-color="#41D1FF"
         id="stop2" />
      <stop
         offset="100%"
         stop-color="#BD34FE"
         id="stop4" />
    </linearGradient>
    <linearGradient
       id="IconifyId1813088fe1fbc01fb467"
       x1="43.376%"
       x2="50.316%"
       y1="2.242%"
       y2="89.03%">
      <stop
         offset="0%"
         stop-color="#FFEA83"
         id="stop7" />
      <stop
         offset="8.333%"
         stop-color="#FFDD35"
         id="stop9" />
      <stop
         offset="100%"
         stop-color="#FFA800"
         id="stop11" />
    </linearGradient>
    <linearGradient
       inkscape:collect="always"
       xlink:href="#linearGradient2781"
       id="linearGradient2783"
       x1="25.111571"
       y1="128.50001"
       x2="230.88843"
       y2="128.50001"
       gradientUnits="userSpaceOnUse" />
  </defs>
  <g
     inkscape:groupmode="layer"
     id="layer3"
     inkscape:label="Layer 1"
     style="display:none">
    <path
       fill="url(#IconifyId1813088fe1fbc01fb466)"
       d="M 255.153,37.938 134.897,252.976 c -2.483,4.44 -8.862,4.466 -11.382,0.048 L 0.875,37.958 c -2.746,-4.814 1.371,-10.646 6.827,-9.67 l 120.385,21.517 a 6.537,6.537 0 0 0 2.322,-0.004 L 248.276,28.318 c 5.438,-0.991 9.574,4.796 6.877,9.62 z"
       id="path16" />
    <path
       fill="url(#IconifyId1813088fe1fbc01fb467)"
       d="M 185.432,0.063 96.44,17.501 a 3.268,3.268 0 0 0 -2.634,3.014 l -5.474,92.456 a 3.268,3.268 0 0 0 3.997,3.378 l 24.777,-5.718 c 2.318,-0.535 4.413,1.507 3.936,3.838 l -7.361,36.047 c -0.495,2.426 1.782,4.5 4.151,3.78 l 15.304,-4.649 c 2.372,-0.72 4.652,1.36 4.15,3.788 l -11.698,56.621 c -0.732,3.542 3.979,5.473 5.943,2.437 l 1.313,-2.028 72.516,-144.72 c 1.215,-2.423 -0.88,-5.186 -3.54,-4.672 l -25.505,4.922 c -2.396,0.462 -4.435,-1.77 -3.759,-4.114 L 189.202,4.176 c 0.677,-2.35 -1.37,-4.583 -3.769,-4.113 z"
       id="path18" />
  </g>
  <g
     inkscape:groupmode="layer"
     id="layer4"
     inkscape:label="Layer 2"
     style="display:inline">
    <text
       xml:space="preserve"
       style="font-style:italic;font-variant:normal;font-weight:900;font-stretch:normal;font-size:324.058px;line-height:1.25;font-family:poppins;-inkscape-font-specification:'poppins Heavy Italic';fill:#ffffff;fill-opacity:1;stroke:#000000;stroke-width:11.31603125;stroke-linecap:butt;stroke-linejoin:round;stroke-miterlimit:4;stroke-dasharray:none;stroke-dashoffset:0;stroke-opacity:1;paint-order:normal"
       x="23.005203"
       y="244.02669"
       id="text34"><tspan
         sodipodi:role="line"
         id="tspan32"
         x="23.005203"
         y="244.02669"
         style="font-style:italic;font-variant:normal;font-weight:900;font-stretch:normal;font-family:poppins;-inkscape-font-specification:'poppins Heavy Italic';fill:#ffffff;fill-opacity:1;stroke:#000000;stroke-width:11.31603125;stroke-linecap:butt;stroke-linejoin:round;stroke-miterlimit:4;stroke-dasharray:none;stroke-dashoffset:0;stroke-opacity:1;paint-order:normal">S</tspan></text>
  </g>
</svg>
